<svg width="16" height="16" viewBox="0 0 16 16" fill="none" xmlns="http://www.w3.org/2000/svg">
<path d="M3.84 0C1.74 0 0.96 0.69375 0.96 2.56V13.12C0.96 13.555 1.0875 13.8687 1.28 14.1V15.04C1.28 15.5687 1.71125 16 2.24 16H3.52C4.04875 16 4.48 15.5687 4.48 15.04V14.72H11.52V15.04C11.52 15.5687 11.9513 16 12.48 16H13.76C14.2887 16 14.72 15.5687 14.72 15.04V14.1C14.9125 13.8687 15.04 13.555 15.04 13.12V2.88C15.04 1.48625 14.8675 0 12.8 0H3.84ZM4.8 1.28H11.52C11.6975 1.28 11.84 1.42375 11.84 1.6V2.24C11.84 2.41625 11.6975 2.56 11.52 2.56H4.8C4.62375 2.56 4.48 2.41625 4.48 2.24V1.6C4.48 1.42375 4.62375 1.28 4.8 1.28ZM3.52 3.52H12.48C13.12 3.52 13.44 3.84 13.44 4.48V8.32C13.44 8.96 12.815 9.26 12.48 9.26L3.52 9.28C2.88 9.28 2.56 8.96 2.56 8.32V4.48C2.56 3.84 2.88 3.52 3.52 3.52ZM0.64 3.84C0.2875 3.84 0 4.1275 0 4.48V7.04C0 7.3925 0.2875 7.68 0.64 7.68V3.84ZM15.36 3.84V7.68C15.7137 7.68 16 7.3925 16 7.04V4.48C16 4.1275 15.7137 3.84 15.36 3.84ZM3.68 10.88C4.29875 10.88 4.8 11.3812 4.8 12C4.8 12.6187 4.29875 13.12 3.68 13.12C3.06125 13.12 2.56 12.6187 2.56 12C2.56 11.3812 3.06125 10.88 3.68 10.88ZM12.32 10.88C12.9387 10.88 13.44 11.3812 13.44 12C13.44 12.6187 12.9387 13.12 12.32 13.12C11.7013 13.12 11.2 12.6187 11.2 12C11.2 11.3812 11.7013 10.88 12.32 10.88Z" fill="#071727"/>
</svg>
