<svg width="18" height="18" viewBox="0 0 18 18" fill="none" xmlns="http://www.w3.org/2000/svg">
<path fill-rule="evenodd" clip-rule="evenodd" d="M12.0975 2.4026C12.0651 2.40081 12.0324 2.3999 11.9996 2.3999C11.2237 2.3999 10.5625 2.9055 10.3121 3.5999H2.39956C2.32005 3.59878 2.24112 3.61347 2.16734 3.64312C2.09355 3.67276 2.0264 3.71678 1.96978 3.77261C1.91316 3.82843 1.8682 3.89496 1.83751 3.96831C1.80682 4.04167 1.79102 4.12039 1.79102 4.1999C1.79102 4.27942 1.80682 4.35814 1.83751 4.43149C1.8682 4.50485 1.91316 4.57137 1.96978 4.6272C2.0264 4.68303 2.09355 4.72704 2.16734 4.75669C2.24112 4.78634 2.32005 4.80103 2.39956 4.7999H10.3121C10.324 4.83289 10.3368 4.86545 10.3505 4.89755L12.0975 2.4026ZM13.7007 3.5999H13.6871C13.5658 3.26368 13.3483 2.97172 13.068 2.75998L12.3837 3.73734C12.505 3.83982 12.5828 3.99174 12.5925 4.16592C12.5912 4.18895 12.5912 4.21203 12.5925 4.23506C12.5741 4.5552 12.3255 4.7999 11.9996 4.7999C11.8871 4.7999 11.7838 4.77075 11.696 4.7194L11.0114 5.69713C11.2948 5.88798 11.6345 5.9999 11.9996 5.9999C12.0065 5.9999 12.0134 5.99986 12.0203 5.99978L13.7007 3.5999ZM14.9214 3.5999L14.0812 4.7999H15.5996C15.6791 4.80103 15.758 4.78634 15.8318 4.75669C15.9056 4.72704 15.9727 4.68303 16.0293 4.6272C16.086 4.57137 16.1309 4.50485 16.1616 4.43149C16.1923 4.35814 16.2081 4.27942 16.2081 4.1999C16.2081 4.12039 16.1923 4.04167 16.1616 3.96831C16.1309 3.89496 16.086 3.82843 16.0293 3.77261C15.9727 3.71678 15.9056 3.67276 15.8318 3.64312C15.758 3.61347 15.6791 3.59878 15.5996 3.5999H14.9214ZM10.3397 8.3999H9.1189L7.45095 10.782C8.11589 10.6864 8.66418 10.2179 8.88706 9.5999H9.49943L10.3397 8.3999ZM10.7202 9.5999L11.5605 8.3999H15.5996C15.6791 8.39878 15.758 8.41347 15.8318 8.44311C15.9056 8.47276 15.9727 8.51678 16.0293 8.57261C16.086 8.62843 16.1309 8.69496 16.1616 8.76831C16.1923 8.84167 16.2081 8.92039 16.2081 8.9999C16.2081 9.07942 16.1923 9.15814 16.1616 9.23149C16.1309 9.30485 16.086 9.37137 16.0293 9.4272C15.9727 9.48303 15.9056 9.52704 15.8318 9.55669C15.758 9.58634 15.6791 9.60103 15.5996 9.5999H10.7202ZM6.97868 13.1999H5.7579L4.91766 14.3999H6.13843L6.97868 13.1999ZM7.35921 14.3999L8.95394 12.1224C9.1543 12.0434 9.372 11.9999 9.59956 11.9999C10.3755 11.9999 11.0366 12.5055 11.2871 13.1999H15.5996C15.6791 13.1988 15.758 13.2135 15.8318 13.2431C15.9056 13.2728 15.9727 13.3168 16.0293 13.3726C16.086 13.4284 16.1309 13.495 16.1616 13.5683C16.1923 13.6417 16.2081 13.7204 16.2081 13.7999C16.2081 13.8794 16.1923 13.9581 16.1616 14.0315C16.1309 14.1048 16.086 14.1714 16.0293 14.2272C15.9727 14.283 15.9056 14.327 15.8318 14.3567C15.758 14.3863 15.6791 14.401 15.5996 14.3999H11.2871C11.0366 15.0943 10.3755 15.5999 9.59956 15.5999C8.82367 15.5999 8.16248 15.0943 7.91206 14.3999H7.35921ZM3.69688 14.3999L4.53713 13.1999H2.39956C2.32005 13.1988 2.24112 13.2135 2.16734 13.2431C2.09355 13.2728 2.0264 13.3168 1.96978 13.3726C1.91316 13.4284 1.8682 13.495 1.83751 13.5683C1.80682 13.6417 1.79102 13.7204 1.79102 13.7999C1.79102 13.8794 1.80682 13.9581 1.83751 14.0315C1.8682 14.1048 1.91316 14.1714 1.96978 14.2272C2.0264 14.283 2.09355 14.327 2.16734 14.3567C2.24112 14.3863 2.32005 14.401 2.39956 14.3999H3.69688ZM6.36482 10.5897L7.06763 9.58597C6.8082 9.52982 6.622 9.30976 6.60659 9.03389C6.60792 9.01086 6.60792 8.98777 6.60659 8.96475C6.62507 8.64461 6.87367 8.3999 7.19956 8.3999C7.41743 8.3999 7.60072 8.50925 7.70382 8.6774L8.40567 7.67505C8.08698 7.38091 7.6638 7.1999 7.19956 7.1999C6.42367 7.1999 5.76248 7.7055 5.51206 8.3999H2.39956C2.32005 8.39878 2.24112 8.41347 2.16734 8.44311C2.09355 8.47276 2.0264 8.51678 1.96978 8.57261C1.91316 8.62843 1.8682 8.69496 1.83751 8.76831C1.80682 8.84167 1.79102 8.92039 1.79102 8.9999C1.79102 9.07942 1.80682 9.15814 1.83751 9.23149C1.8682 9.30485 1.91316 9.37137 1.96978 9.4272C2.0264 9.48303 2.09355 9.52704 2.16734 9.55669C2.24112 9.58634 2.32005 9.60103 2.39956 9.5999H5.51206C5.66522 10.0246 5.97206 10.3787 6.36482 10.5897ZM10.1925 13.7659C10.1746 13.4452 9.92586 13.1999 9.59956 13.1999C9.27367 13.1999 9.02507 13.4446 9.00659 13.7647C9.00792 13.7878 9.00792 13.8109 9.00659 13.8339C9.0245 14.1546 9.27326 14.3999 9.59956 14.3999C9.92546 14.3999 10.1741 14.1552 10.1925 13.8351C10.1912 13.812 10.1912 13.7889 10.1925 13.7659Z" fill="white"/>
<path d="M14.014 1.40958C14.1724 1.18337 14.4842 1.1284 14.7104 1.28679C14.9366 1.44518 14.9915 1.75695 14.8331 1.98315L5.10613 15.8748C4.94775 16.101 4.63597 16.1559 4.40977 15.9976C4.18357 15.8392 4.12859 15.5274 4.28698 15.3012L14.014 1.40958Z" fill="white"/>
</svg>
