<svg width="24" height="24" viewBox="0 0 24 24" fill="none" xmlns="http://www.w3.org/2000/svg">
<g clip-path="url(#clip0_9421_50430)">
<path d="M7.19966 0C4.29716 0 1.91966 2.3775 1.91966 5.28C1.91778 5.4525 2.00778 5.61375 2.15778 5.70187C2.30778 5.78813 2.49153 5.78813 2.64153 5.70187C2.79153 5.61375 2.88153 5.4525 2.87966 5.28C2.87966 2.9025 4.82216 0.96 7.19966 0.96C9.34653 0.96 11.1315 2.54625 11.4597 4.605C10.7584 3.84375 9.75903 3.36 8.63966 3.36C6.51341 3.36 4.79966 5.07375 4.79966 7.2C4.79778 7.3725 4.88778 7.53375 5.03778 7.62187C5.18778 7.70813 5.37153 7.70813 5.52153 7.62187C5.67153 7.53375 5.76153 7.3725 5.75966 7.2C5.75966 5.58187 7.02153 4.32 8.63966 4.32C10.2578 4.32 11.5197 5.58187 11.5197 7.2C11.1165 6.89625 10.6197 6.72 10.0797 6.72C8.76153 6.72 7.67966 7.80187 7.67966 9.12C7.67778 9.2925 7.76778 9.45375 7.91778 9.54187C8.06778 9.62813 8.25153 9.62813 8.40153 9.54187C8.55153 9.45375 8.64153 9.2925 8.63966 9.12C8.63966 8.325 9.28466 7.68 10.0797 7.68C10.8747 7.68 11.5197 8.325 11.5197 9.12C11.5197 9.135 11.5197 9.15 11.5197 9.165V10.56H12.4797V9.195C12.4815 9.17062 12.4815 9.14437 12.4797 9.12C12.4797 8.325 13.1247 7.68 13.9197 7.68C14.7147 7.68 15.3597 8.325 15.3597 9.12C15.3578 9.2925 15.4478 9.45375 15.5978 9.54187C15.7478 9.62813 15.9315 9.62813 16.0815 9.54187C16.2315 9.45375 16.3215 9.2925 16.3197 9.12C16.3197 7.80187 15.2378 6.72 13.9197 6.72C13.3797 6.72 12.8828 6.89625 12.4797 7.2C12.4797 5.58187 13.7415 4.32 15.3597 4.32C16.9778 4.32 18.2397 5.58187 18.2397 7.2C18.2378 7.3725 18.3278 7.53375 18.4778 7.62187C18.6278 7.70813 18.8115 7.70813 18.9615 7.62187C19.1115 7.53375 19.2015 7.3725 19.1997 7.2C19.1997 5.07375 17.4859 3.36 15.3597 3.36C14.2403 3.36 13.2409 3.84375 12.5397 4.605C12.8678 2.54625 14.6528 0.96 16.7997 0.96C19.1772 0.96 21.1197 2.9025 21.1197 5.28C21.1178 5.4525 21.2078 5.61375 21.3578 5.70187C21.5078 5.78813 21.6915 5.78813 21.8415 5.70187C21.9915 5.61375 22.0815 5.4525 22.0797 5.28C22.0797 2.3775 19.7022 0 16.7997 0C14.6715 0 12.834 1.28063 11.9997 3.105C11.1672 1.27875 9.32778 0 7.19966 0ZM4.18466 11.04C3.92028 11.0775 3.73466 11.3231 3.77216 11.5875C3.80966 11.8519 4.05528 12.0375 4.31966 12H4.36466C4.56341 13.0744 5.41278 14.1431 6.61466 15.03C7.44716 15.645 8.47278 16.1569 9.61466 16.47C9.60341 16.5131 9.59778 16.56 9.59966 16.605V19.2H0.479656C0.464656 19.2 0.449656 19.2 0.434656 19.2C0.170281 19.2131 -0.0359692 19.4381 -0.0228442 19.7025C-0.00971919 19.9669 0.215281 20.1731 0.479656 20.16H0.539656C0.554656 20.2312 0.569656 20.3062 0.584656 20.37C0.590281 20.3756 0.594031 20.3794 0.599656 20.385C1.23716 22.5619 3.25841 23.955 5.42966 23.955H18.5697C20.7409 23.955 22.7622 22.5619 23.3997 20.385C23.4053 20.3794 23.409 20.3756 23.4147 20.37C23.4297 20.3062 23.4447 20.2312 23.4597 20.16H23.5197C23.6922 20.1619 23.8534 20.0719 23.9415 19.9219C24.0278 19.7719 24.0278 19.5881 23.9415 19.4381C23.8534 19.2881 23.6922 19.1981 23.5197 19.2H14.3997V16.605C14.4015 16.56 14.3959 16.5131 14.3847 16.47C15.5265 16.1569 16.5522 15.645 17.3847 15.03C18.5865 14.1431 19.4359 13.0744 19.6347 12H19.6797C19.8522 12.0019 20.0134 11.9119 20.1015 11.7619C20.1878 11.6119 20.1878 11.4281 20.1015 11.2781C20.0134 11.1281 19.8522 11.0381 19.6797 11.04H4.31966C4.30466 11.04 4.28966 11.04 4.27466 11.04C4.25966 11.04 4.24466 11.04 4.22966 11.04C4.21466 11.04 4.19966 11.04 4.18466 11.04ZM5.45966 12H18.5397C18.3372 12.6788 17.7953 13.515 16.7997 14.25C15.5753 15.1519 13.8747 15.84 11.9997 15.84C10.1247 15.84 8.42403 15.1519 7.19966 14.25C6.20403 13.515 5.66216 12.6788 5.45966 12ZM10.5597 16.68C11.0284 16.7569 11.5047 16.8 11.9997 16.8C12.4947 16.8 12.9709 16.7569 13.4397 16.68V19.2H10.5597V16.68ZM1.52966 20.16H22.4697C21.9409 21.8906 20.319 22.995 18.5697 22.995H5.42966C3.68028 22.995 2.05841 21.8906 1.52966 20.16Z" fill="#1D9BEB"/>
</g>
<defs>
<clipPath id="clip0_9421_50430">
<rect width="24" height="24" fill="white"/>
</clipPath>
</defs>
</svg>
