<svg width="24" height="24" viewBox="0 0 24 24" fill="none" xmlns="http://www.w3.org/2000/svg">
<g clip-path="url(#clip0_9421_50442)">
<path d="M15.8325 0.473517C15.8092 0.474021 15.7861 0.476214 15.7631 0.480079H8.64C8.5127 0.480092 8.39062 0.530667 8.3006 0.620682C8.21059 0.710697 8.16001 0.832779 8.16 0.960079V10.0801H4.99594C3.01526 10.0801 1.40156 11.7014 1.40156 13.6876C1.40156 13.7204 1.40237 14.1562 1.4025 14.4216C0.598556 14.6737 0 15.4023 0 16.2873C0 17.0718 0.506292 17.6838 1.17094 18.0029L2.05594 20.2932L2.04281 20.252C2.1892 20.7614 2.5468 21.0826 2.91375 21.2795L2.54438 22.0229C2.20944 22.6928 2.48588 23.5208 3.15563 23.8557C3.34948 23.9523 3.55998 24.0001 3.76594 24.0001C4.26743 24.0001 4.75025 23.7205 4.98844 23.2463V23.2454L5.80781 21.6001H12.4331L13.2516 23.2454L13.2525 23.2463C13.4905 23.7201 13.9726 24.0001 14.4741 24.0001C14.68 24.0001 14.8905 23.9523 15.0844 23.8557C15.7541 23.5208 16.0306 22.6928 15.6956 22.0229L15.24 21.106C15.2792 21.1157 15.3196 21.1205 15.36 21.1201H20.64V21.6001H23.52V20.6401V0.960079C23.52 0.832779 23.4694 0.710697 23.3794 0.620682C23.2894 0.530667 23.1673 0.480092 23.04 0.480079H15.9141C15.8871 0.475574 15.8598 0.473379 15.8325 0.473517ZM9.12 1.44008H15.36V11.2023C14.7048 10.5129 13.784 10.0801 12.7631 10.0801H9.12V1.44008ZM16.32 1.44008H22.56V20.1601H15.7556L16.5891 18.0038C17.2537 17.6846 17.76 17.0723 17.76 16.2873C17.76 15.4024 17.1614 14.6737 16.3575 14.4216C16.3575 14.3276 16.3574 14.2993 16.3575 14.1779C16.3576 13.9341 16.3575 13.7095 16.3575 13.6876C16.3575 13.4834 16.3368 13.2846 16.3041 13.0895C16.3152 13.0473 16.3206 13.0037 16.32 12.9601V1.44008ZM18.2325 10.0735C18.1054 10.0755 17.9842 10.1279 17.8956 10.2191C17.807 10.3103 17.7583 10.4329 17.76 10.5601V12.0001C17.7591 12.0637 17.7709 12.1268 17.7946 12.1859C17.8183 12.2449 17.8535 12.2986 17.8982 12.3439C17.9428 12.3892 17.996 12.4252 18.0547 12.4497C18.1134 12.4743 18.1764 12.4869 18.24 12.4869C18.3036 12.4869 18.3666 12.4743 18.4253 12.4497C18.484 12.4252 18.5372 12.3892 18.5818 12.3439C18.6265 12.2986 18.6617 12.2449 18.6854 12.1859C18.7091 12.1268 18.7209 12.0637 18.72 12.0001V10.5601C18.7209 10.4959 18.7089 10.4321 18.6847 10.3726C18.6605 10.3131 18.6246 10.2591 18.5791 10.2137C18.5337 10.1684 18.4796 10.1326 18.42 10.1085C18.3605 10.0844 18.2967 10.0725 18.2325 10.0735ZM4.99594 11.0401H8.55938C8.61121 11.0486 8.6641 11.0486 8.71594 11.0401H12.7631C14.2229 11.0401 15.3975 12.2189 15.3975 13.6876C15.3975 13.6695 15.3976 13.9331 15.3975 14.177C15.3974 14.3019 15.3966 14.3382 15.3966 14.4282C14.7375 14.5729 14.1672 14.9721 13.935 15.5954L13.9463 15.5682L13.4147 16.7654C13.4059 16.7627 13.4021 16.7616 13.3931 16.7588C13.1258 16.6778 12.7523 16.5736 12.3019 16.471C11.4011 16.2658 10.1943 16.0641 8.91938 16.0641C7.64428 16.0641 6.41864 16.2671 5.4975 16.4729C5.03693 16.5758 4.6531 16.6795 4.37813 16.7607C4.36199 16.7655 4.35506 16.7683 4.33969 16.7729L3.84375 15.6685C3.62514 15.0174 3.044 14.5868 2.3625 14.4357C2.36237 14.1577 2.36156 13.6599 2.36156 13.6876C2.36156 12.2178 3.53597 11.0401 4.99594 11.0401ZM1.97625 15.2645C2.43948 15.2645 2.82134 15.5747 2.94563 16.0004L2.955 16.0323L3.86531 18.0601L4.29281 17.7948C4.30769 17.7894 4.32569 17.7826 4.35375 17.7732C4.4212 17.7507 4.52228 17.7191 4.65 17.6813C4.90543 17.6059 5.26953 17.5071 5.70656 17.4095C6.58062 17.2142 7.74695 17.0241 8.91938 17.0241C10.092 17.0241 11.2372 17.2135 12.0891 17.4076C12.515 17.5046 12.8677 17.6027 13.1147 17.6776C13.2382 17.715 13.3356 17.7462 13.4006 17.7685C13.4284 17.778 13.4463 17.7848 13.4606 17.7901L13.8909 18.0563L14.8294 15.9441L14.835 15.9301C14.9804 15.5399 15.3448 15.2645 15.7838 15.2645C16.3491 15.2645 16.8 15.7159 16.8 16.2873C16.8 16.7605 16.4807 17.148 16.0509 17.2679L15.8194 17.3326L14.8013 19.967L14.7947 19.9876C14.7071 20.2922 14.4526 20.4446 14.1356 20.5426C13.8186 20.6406 13.5234 20.6401 13.5234 20.6401H13.5206H12.7988C12.7789 20.6369 12.7588 20.6351 12.7388 20.6345C12.7115 20.634 12.6842 20.6359 12.6572 20.6401H5.52563H4.23938H4.23656C4.23656 20.6401 3.94133 20.6406 3.62438 20.5426C3.30744 20.4445 3.05294 20.2925 2.96531 19.9876L2.95875 19.967L1.94063 17.3316L1.70813 17.267C1.27743 17.1474 0.96 16.7616 0.96 16.2873C0.96 15.7151 1.41004 15.2645 1.97625 15.2645ZM14.3522 21.4763L14.8369 22.4513V22.4523C14.9397 22.6579 14.8608 22.8941 14.655 22.997C14.5948 23.0268 14.5347 23.0401 14.4741 23.0401C14.3247 23.0401 14.1843 22.9624 14.1103 22.8151V22.817L13.5056 21.6001H13.5131C13.5131 21.6001 13.9023 21.603 14.3522 21.4763ZM3.84375 21.5663C4.07784 21.5981 4.24688 21.6001 4.24688 21.6001H4.73531L4.13063 22.8151C4.05682 22.962 3.91533 23.0401 3.76594 23.0401C3.70531 23.0401 3.64524 23.0268 3.585 22.997C3.37923 22.8941 3.3003 22.6579 3.40313 22.4523V22.4513L3.84375 21.5663Z" fill="#1D9BEB"/>
</g>
<defs>
<clipPath id="clip0_9421_50442">
<rect width="24" height="24" fill="white"/>
</clipPath>
</defs>
</svg>
