<svg width="24" height="24" viewBox="0 0 24 24" fill="none" xmlns="http://www.w3.org/2000/svg">
<g clip-path="url(#clip0_9421_50424)">
<path d="M11.9396 0.0004046C11.904 0.00602962 11.8684 0.0172796 11.8347 0.0304046L4.63465 2.7604C4.44527 2.82978 4.31965 3.00978 4.31965 3.2104V16.5604C4.23527 16.4929 4.1284 16.4554 4.01965 16.4554C3.98965 16.4573 3.95965 16.4629 3.92965 16.4704C3.85652 16.4892 3.7909 16.5248 3.73465 16.5754C3.11215 17.0817 2.0284 17.2804 1.39465 17.2804C1.10402 17.2804 0.828399 17.2354 0.524648 17.2354C0.352148 17.2335 0.190899 17.3235 0.102774 17.4735C0.0165234 17.6235 0.0165234 17.8073 0.102774 17.9573C0.190899 18.1073 0.352148 18.1973 0.524648 18.1954C0.700899 18.1954 1.01215 18.2404 1.39465 18.2404C2.11277 18.2404 3.1384 18.0304 4.00465 17.4754C4.10965 17.5448 4.2109 17.6067 4.31965 17.6704V18.4804C4.20902 18.3942 4.06652 18.3623 3.92965 18.3904C3.85652 18.4092 3.7909 18.4448 3.73465 18.4954C3.11215 19.0017 2.0284 19.2004 1.39465 19.2004C1.10402 19.2004 0.828399 19.1554 0.524648 19.1554C0.352148 19.1535 0.190899 19.2435 0.102774 19.3935C0.0165234 19.5435 0.0165234 19.7273 0.102774 19.8773C0.190899 20.0273 0.352148 20.1173 0.524648 20.1154C0.700899 20.1154 1.01215 20.1604 1.39465 20.1604C2.11277 20.1604 3.1384 19.9504 4.00465 19.3954C4.10965 19.4648 4.2109 19.5267 4.31965 19.5904V20.2804C4.2709 20.2617 4.22027 20.2523 4.16965 20.2504C4.05902 20.2542 3.95215 20.2973 3.86965 20.3704C3.24715 20.8767 2.1634 21.0754 1.52965 21.0754C1.23902 21.0754 0.978399 21.0304 0.674648 21.0304C0.502148 21.0285 0.340899 21.1185 0.252774 21.2685C0.166523 21.4185 0.166523 21.6023 0.252774 21.7523C0.340899 21.9023 0.502148 21.9923 0.674648 21.9904C0.850899 21.9904 1.14715 22.0354 1.52965 22.0354C2.25152 22.0354 3.29965 21.8198 4.16965 21.2554C4.24465 21.3042 4.31777 21.3473 4.39465 21.3904C4.48652 21.5235 4.6384 21.6023 4.79965 21.6004C4.8034 21.6023 4.8109 21.5985 4.81465 21.6004C5.51965 21.9098 6.2584 22.0354 6.80965 22.0354C7.53152 22.0354 8.57965 21.8198 9.44965 21.2554C10.3215 21.8273 11.364 22.0354 12.0896 22.0354C12.8115 22.0354 13.8596 21.8198 14.7296 21.2554C15.6015 21.8273 16.644 22.0354 17.3696 22.0354C18.0915 22.0354 19.1397 21.8198 20.0097 21.2554C20.8815 21.8273 21.924 22.0354 22.6497 22.0354C23.0322 22.0354 23.3884 21.9792 23.6997 21.8554C23.949 21.756 24.069 21.4748 23.9697 21.2254C23.8703 20.976 23.589 20.856 23.3397 20.9554C23.1709 21.0229 22.9403 21.0754 22.6497 21.0754C22.0159 21.0754 20.9472 20.8767 20.3246 20.3704C20.1465 20.2223 19.8878 20.2223 19.7097 20.3704C19.7022 20.3779 19.6872 20.3779 19.6797 20.3854V19.5754C19.7997 19.5042 19.9103 19.4254 20.0247 19.3504C20.8928 19.9129 21.9297 20.1154 22.6497 20.1154C23.0322 20.1154 23.3884 20.0592 23.6997 19.9354C23.949 19.836 24.069 19.5548 23.9697 19.3054C23.8703 19.056 23.589 18.936 23.3397 19.0354C23.1709 19.1029 22.9403 19.1554 22.6497 19.1554C22.0159 19.1554 20.9472 18.9567 20.3246 18.4504C20.2384 18.3735 20.1259 18.3304 20.0097 18.3304C19.9009 18.3304 19.794 18.3679 19.7097 18.4354C19.7003 18.4429 19.689 18.4429 19.6797 18.4504V17.6554C19.7997 17.5842 19.9103 17.5054 20.0247 17.4304C20.8928 17.9929 21.9297 18.1954 22.6497 18.1954C23.0322 18.1954 23.3884 18.1392 23.6997 18.0154C23.949 17.916 24.069 17.6348 23.9697 17.3854C23.8703 17.136 23.589 17.016 23.3397 17.1154C23.1709 17.1829 22.9403 17.2354 22.6497 17.2354C22.0159 17.2354 20.9472 17.0367 20.3246 16.5304C20.2384 16.4535 20.1259 16.4104 20.0097 16.4104C19.9946 16.4104 19.9797 16.4104 19.9647 16.4104C19.8709 16.4198 19.7828 16.4554 19.7097 16.5154C19.7003 16.5229 19.689 16.5229 19.6797 16.5304V3.2104C19.6797 3.00978 19.554 2.82978 19.3647 2.7604L12.1646 0.0304046C12.0934 0.0022796 12.0165 -0.0070954 11.9396 0.0004046ZM11.9997 0.990405L18.7197 3.5404V20.8654C18.2359 21.0135 17.7297 21.0754 17.3696 21.0754C16.7359 21.0754 15.6672 20.8767 15.0447 20.3704C14.8665 20.2223 14.6078 20.2223 14.4297 20.3704C13.8071 20.8767 12.7234 21.0754 12.0896 21.0754C11.4559 21.0754 10.3871 20.8767 9.76465 20.3704C9.58652 20.2223 9.32777 20.2223 9.14965 20.3704C8.52715 20.8767 7.4434 21.0754 6.80965 21.0754C6.4009 21.0754 5.81215 20.9985 5.27965 20.8054V19.3804C5.28527 19.3354 5.28527 19.2904 5.27965 19.2454V17.4604C5.28527 17.4154 5.28527 17.3704 5.27965 17.3254V3.5404L11.9997 0.990405ZM8.15965 5.7604V8.1604H10.5596V5.7604H8.15965ZM13.4396 5.7604V8.1604H15.8397V5.7604H13.4396ZM8.15965 10.5604V12.9604H10.5596V10.5604H8.15965ZM13.4396 10.5604V12.9604H15.8397V10.5604H13.4396ZM8.15965 15.3604V17.7604H10.5596V15.3604H8.15965ZM13.4396 15.3604V17.7604H15.8397V15.3604H13.4396ZM4.12465 22.1704C4.02902 22.1835 3.9409 22.2267 3.86965 22.2904C3.24715 22.7967 2.1634 22.9954 1.52965 22.9954C1.23902 22.9954 0.978399 22.9504 0.674648 22.9504C0.502148 22.9485 0.340899 23.0385 0.252774 23.1885C0.166523 23.3385 0.166523 23.5223 0.252774 23.6723C0.340899 23.8223 0.502148 23.9123 0.674648 23.9104C0.850899 23.9104 1.14715 23.9554 1.52965 23.9554C2.25152 23.9554 3.29965 23.7398 4.16965 23.1754C5.04152 23.7473 6.08402 23.9554 6.80965 23.9554C7.53152 23.9554 8.57965 23.7398 9.44965 23.1754C10.3215 23.7473 11.364 23.9554 12.0896 23.9554C12.8115 23.9554 13.8596 23.7398 14.7296 23.1754C15.6015 23.7473 16.644 23.9554 17.3696 23.9554C18.0915 23.9554 19.1397 23.7398 20.0097 23.1754C20.8815 23.7473 21.924 23.9554 22.6497 23.9554C23.0322 23.9554 23.3884 23.8992 23.6997 23.7754C23.949 23.676 24.069 23.3948 23.9697 23.1454C23.8703 22.896 23.589 22.776 23.3397 22.8754C23.1709 22.9429 22.9403 22.9954 22.6497 22.9954C22.0159 22.9954 20.9472 22.7967 20.3246 22.2904C20.1465 22.1423 19.8878 22.1423 19.7097 22.2904C19.0872 22.7967 18.0034 22.9954 17.3696 22.9954C16.7359 22.9954 15.6672 22.7967 15.0447 22.2904C14.8665 22.1423 14.6078 22.1423 14.4297 22.2904C13.8071 22.7967 12.7234 22.9954 12.0896 22.9954C11.4559 22.9954 10.3871 22.7967 9.76465 22.2904C9.58652 22.1423 9.32777 22.1423 9.14965 22.2904C8.52715 22.7967 7.4434 22.9954 6.80965 22.9954C6.1759 22.9954 5.10715 22.7967 4.48465 22.2904C4.3984 22.2135 4.2859 22.1704 4.16965 22.1704C4.15465 22.1704 4.13965 22.1704 4.12465 22.1704Z" fill="#1D9BEB"/>
</g>
<defs>
<clipPath id="clip0_9421_50424">
<rect width="24" height="24" fill="white"/>
</clipPath>
</defs>
</svg>
