<svg width="18" height="18" viewBox="0 0 18 18" fill="none" xmlns="http://www.w3.org/2000/svg">
<path fill-rule="evenodd" clip-rule="evenodd" d="M14.75 9C14.75 12.1756 12.1756 14.75 9 14.75C5.82436 14.75 3.25 12.1756 3.25 9C3.25 5.82436 5.82436 3.25 9 3.25C12.1756 3.25 14.75 5.82436 14.75 9ZM15.75 9C15.75 12.7279 12.7279 15.75 9 15.75C5.27208 15.75 2.25 12.7279 2.25 9C2.25 5.27208 5.27208 2.25 9 2.25C12.7279 2.25 15.75 5.27208 15.75 9ZM8.37681 10.4591C8.37681 10.4951 8.37981 10.5281 8.38581 10.5581H8.9798C8.9798 10.3061 9.01881 10.0871 9.09681 9.9011C9.18081 9.7151 9.28281 9.5441 9.40281 9.3881C9.52881 9.2261 9.66081 9.0731 9.79881 8.9291C9.94281 8.7851 10.0748 8.6321 10.1948 8.4701C10.3208 8.3021 10.4228 8.1191 10.5008 7.9211C10.5848 7.7171 10.6268 7.4801 10.6268 7.2101C10.6268 7.0061 10.5938 6.8141 10.5278 6.6341C10.4618 6.4541 10.3598 6.2981 10.2218 6.1661C10.0898 6.0341 9.92181 5.9321 9.71781 5.8601C9.51981 5.7821 9.28881 5.7431 9.02481 5.7431C8.65281 5.7431 8.34081 5.7851 8.08881 5.8691C7.83681 5.9471 7.5968 6.0551 7.3688 6.1931L7.6118 6.7511C7.7738 6.6491 7.96581 6.5621 8.18781 6.4901C8.40981 6.4121 8.62881 6.3731 8.84481 6.3731C9.2168 6.3731 9.48081 6.4601 9.63681 6.6341C9.79881 6.8081 9.87981 7.0331 9.87981 7.3091C9.87981 7.5131 9.84081 7.6961 9.7628 7.8581C9.69081 8.0141 9.59781 8.1641 9.48381 8.3081C9.37581 8.4461 9.25581 8.5841 9.12381 8.7221C8.99781 8.8601 8.87781 9.0101 8.7638 9.1721C8.65581 9.3281 8.56281 9.5021 8.48481 9.6941C8.41281 9.8861 8.37681 10.1081 8.37681 10.3601V10.4591ZM8.34081 11.3591C8.2508 11.4491 8.20581 11.5751 8.20581 11.7371C8.20581 11.8931 8.2508 12.0191 8.34081 12.1151C8.43681 12.2111 8.56281 12.2591 8.71881 12.2591C8.88081 12.2591 9.00981 12.2111 9.1058 12.1151C9.20181 12.0191 9.2498 11.8931 9.2498 11.7371C9.2498 11.5751 9.20181 11.4491 9.1058 11.3591C9.00981 11.2631 8.88081 11.2151 8.71881 11.2151C8.56281 11.2151 8.43681 11.2631 8.34081 11.3591Z" fill="#0090FF"/>
</svg>
