<svg width="24" height="24" viewBox="0 0 24 24" fill="none" xmlns="http://www.w3.org/2000/svg">
<g clip-path="url(#clip0_9421_50420)">
<path d="M10.8894 5.81989C10.4431 5.81614 9.9275 5.96239 9.34437 6.31489C9.185 6.39927 9.08562 6.56614 9.0875 6.74614C9.08937 6.92614 9.1925 7.08927 9.35562 7.16989C9.51687 7.25052 9.71 7.23177 9.85437 7.12489C10.3344 6.83614 10.6419 6.77802 10.8744 6.77989C11.1069 6.78177 11.2906 6.85489 11.5194 6.97489C11.7481 7.09489 12.0069 7.26364 12.3744 7.34989C12.7419 7.43614 13.2012 7.38552 13.6644 7.13989C13.8369 7.07239 13.9569 6.91302 13.97 6.72739C13.9831 6.54177 13.8894 6.36552 13.7281 6.27364C13.565 6.18364 13.3662 6.19302 13.2144 6.29989C12.9069 6.46114 12.7644 6.45739 12.5994 6.41989C12.4344 6.38239 12.2262 6.26239 11.9544 6.11989C11.6825 5.97739 11.3356 5.82364 10.8894 5.81989ZM9.50937 7.67989C9.38 7.70427 9.2675 7.78114 9.19625 7.89177C9.125 8.00239 9.1025 8.13739 9.13437 8.26489C9.695 10.738 9.57687 12.4668 9.32937 13.5599C9.08187 14.653 8.74437 15.0749 8.74437 15.0749C8.6375 15.2193 8.62062 15.4105 8.69937 15.5718C8.77812 15.733 8.93937 15.8361 9.11937 15.8399H16.3794C16.6269 15.8324 16.8294 15.6374 16.8444 15.3899C16.9981 13.2074 15.8862 11.2855 14.4144 9.91489C12.9425 8.54427 11.1237 7.67989 9.59937 7.67989C9.58437 7.67989 9.56937 7.67989 9.55437 7.67989C9.53937 7.67989 9.52437 7.67989 9.50937 7.67989ZM10.1544 8.78989C11.255 8.96239 12.6312 9.54552 13.7694 10.6049C14.9787 11.7318 15.8262 13.2411 15.8694 14.8799H9.88437C10.0137 14.5799 10.1487 14.2574 10.2594 13.7699C10.5087 12.6655 10.5462 10.963 10.1544 8.78989ZM4.70937 16.3199C4.48062 16.363 4.31562 16.5655 4.31937 16.7999C4.31937 18.4761 5.01125 19.498 5.83437 20.0549C5.31875 19.9311 4.75437 19.693 4.34937 19.3199C4.24062 19.2186 4.09062 19.1755 3.94437 19.1999C3.85437 19.2168 3.77187 19.258 3.70437 19.3199C3.05 19.9236 2 20.1599 1.36437 20.1599C1.06624 20.1599 0.81687 20.1299 0.56937 20.0849C0.308745 20.0343 0.0574948 20.2068 0.00686965 20.4674C-0.0437554 20.728 0.128745 20.9793 0.38937 21.0299C0.67437 21.0805 0.998745 21.1199 1.36437 21.1199C2.11437 21.1199 3.14937 20.8611 4.01937 20.2199C4.89125 20.8686 5.9375 21.1199 6.68937 21.1199C7.23875 21.1199 7.93437 20.9811 8.60937 20.6549C8.6525 20.6493 8.71437 20.6399 8.71437 20.6399C8.86062 20.6155 8.98625 20.5274 9.05937 20.3999C9.15125 20.3418 9.24125 20.2855 9.32937 20.2199C10.2012 20.8668 11.2475 21.1199 11.9994 21.1199C12.7512 21.1199 13.7975 20.8686 14.6694 20.2199C14.7575 20.2855 14.8475 20.3418 14.9394 20.3999C15.0181 20.5368 15.1569 20.6268 15.3144 20.6399C15.3144 20.6399 15.3594 20.6399 15.3744 20.6399C16.055 20.9718 16.7562 21.1199 17.3094 21.1199C18.0612 21.1199 19.1075 20.8686 19.9794 20.2199C20.8494 20.8611 21.8844 21.1199 22.6344 21.1199C23.0581 21.1199 23.4106 21.043 23.6994 20.9249C23.9487 20.8255 24.0687 20.5443 23.9694 20.2949C23.87 20.0455 23.5887 19.9255 23.3394 20.0249C23.1556 20.0999 22.9362 20.1599 22.6344 20.1599C21.9987 20.1599 20.9487 19.9236 20.2944 19.3199C20.1106 19.153 19.8331 19.153 19.6494 19.3199C19.0719 19.8524 18.2019 20.0943 17.5644 20.1449C18.4944 19.6518 19.4262 18.6599 19.6794 16.8749C19.7019 16.7343 19.6606 16.5936 19.5687 16.4868C19.475 16.378 19.34 16.318 19.1994 16.3199H4.79937C4.78437 16.3199 4.76937 16.3199 4.75437 16.3199C4.73937 16.3199 4.72437 16.3199 4.70937 16.3199ZM5.33937 17.2799H18.5844C18.2562 18.523 17.5662 19.1174 16.8894 19.4099C16.2575 19.6818 15.6912 19.6855 15.4944 19.6799C15.3125 19.5786 15.1362 19.4586 14.9844 19.3199C14.8006 19.153 14.5231 19.153 14.3394 19.3199C13.685 19.9236 12.635 20.1599 11.9994 20.1599C11.3637 20.1599 10.3137 19.9236 9.65937 19.3199C9.47562 19.153 9.19812 19.153 9.01437 19.3199C8.8625 19.4586 8.68625 19.5786 8.50437 19.6799C8.35812 19.7005 7.62312 19.7924 6.88437 19.5299C6.1475 19.2693 5.47625 18.7143 5.33937 17.2799ZM3.94437 21.1199C3.85437 21.1368 3.77187 21.178 3.70437 21.2399C3.05 21.8436 2 22.0799 1.36437 22.0799C1.06624 22.0799 0.81687 22.0499 0.56937 22.0049C0.308745 21.9543 0.0574948 22.1268 0.00686965 22.3874C-0.0437554 22.648 0.128745 22.8993 0.38937 22.9499C0.67437 23.0005 0.998745 23.0399 1.36437 23.0399C2.11437 23.0399 3.14937 22.7811 4.01937 22.1399C4.89125 22.7886 5.9375 23.0399 6.68937 23.0399C7.43937 23.0399 8.45937 22.7811 9.32937 22.1399C10.2012 22.7868 11.2475 23.0399 11.9994 23.0399C12.7512 23.0399 13.7975 22.7886 14.6694 22.1399C15.5394 22.7811 16.5594 23.0399 17.3094 23.0399C18.0612 23.0399 19.1075 22.7886 19.9794 22.1399C20.8494 22.7811 21.8844 23.0399 22.6344 23.0399C23.0581 23.0399 23.4106 22.963 23.6994 22.8449C23.9487 22.7455 24.0687 22.4643 23.9694 22.2149C23.87 21.9655 23.5887 21.8455 23.3394 21.9449C23.1556 22.0199 22.9362 22.0799 22.6344 22.0799C21.9987 22.0799 20.9487 21.8436 20.2944 21.2399C20.1106 21.073 19.8331 21.073 19.6494 21.2399C18.995 21.8436 17.945 22.0799 17.3094 22.0799C16.6737 22.0799 15.6387 21.8436 14.9844 21.2399C14.8006 21.073 14.5231 21.073 14.3394 21.2399C13.685 21.8436 12.635 22.0799 11.9994 22.0799C11.3637 22.0799 10.3137 21.8436 9.65937 21.2399C9.47562 21.073 9.19812 21.073 9.01437 21.2399C8.36 21.8436 7.325 22.0799 6.68937 22.0799C6.05375 22.0799 5.00375 21.8436 4.34937 21.2399C4.24062 21.1386 4.09062 21.0955 3.94437 21.1199Z" fill="#1D9BEB"/>
</g>
<defs>
<clipPath id="clip0_9421_50420">
<rect width="24" height="24" fill="white"/>
</clipPath>
</defs>
</svg>
