<svg width="18" height="18" viewBox="0 0 18 18" fill="none" xmlns="http://www.w3.org/2000/svg">
<path d="M8.9998 1.80005C5.34789 1.80005 2.3278 4.53206 1.86777 8.06372C1.85478 8.14313 1.85788 8.22434 1.8769 8.30252C1.89593 8.3807 1.93048 8.45426 1.97851 8.51882C2.02654 8.58338 2.08706 8.63762 2.15647 8.67831C2.22588 8.71901 2.30277 8.74533 2.38257 8.7557C2.46236 8.76608 2.54342 8.7603 2.62094 8.73872C2.69845 8.71713 2.77083 8.68017 2.83377 8.63005C2.89672 8.57992 2.94893 8.51765 2.98732 8.44693C3.02571 8.37621 3.04948 8.2985 3.05723 8.21841C3.4408 5.27367 5.94492 3.00005 8.9998 3.00005C10.6599 3.00005 12.1501 3.67718 13.235 4.76489L11.9998 6.00005L15.5998 6.60005L14.9998 3.00005L14.0822 3.91763C12.7802 2.61458 10.9854 1.80005 8.9998 1.80005ZM15.5471 9.25083C15.3984 9.24869 15.2543 9.30181 15.1426 9.39989C15.0308 9.49796 14.9595 9.63402 14.9424 9.78169C14.5588 12.7264 12.0547 15 8.9998 15C7.18655 15 5.57906 14.1902 4.47871 12.9211L5.3998 12L1.7998 11.4L2.3998 15L3.6291 13.7708C4.94696 15.2537 6.86144 16.2 8.9998 16.2C12.6517 16.2 15.6718 13.468 16.1318 9.93638C16.144 9.85199 16.138 9.76598 16.1143 9.68408C16.0906 9.60218 16.0498 9.52627 15.9944 9.4614C15.9391 9.39653 15.8706 9.3442 15.7935 9.30789C15.7163 9.27158 15.6323 9.25213 15.5471 9.25083Z" fill="white"/>
</svg>
