<svg width="10" height="16" viewBox="0 0 10 16" fill="none" xmlns="http://www.w3.org/2000/svg">
<path d="M5.8002 0.639893C5.0052 0.639893 4.3602 1.28489 4.3602 2.07989C4.3602 2.87489 5.0052 3.51989 5.8002 3.51989C6.5952 3.51989 7.2402 2.87489 7.2402 2.07989C7.2402 1.28489 6.5952 0.639893 5.8002 0.639893ZM4.4277 4.15989C4.14645 4.15989 3.8727 4.25239 3.64895 4.42364L1.47395 5.84989C1.4577 5.85989 1.4427 5.86989 1.4277 5.87989L1.42395 5.88364C1.32645 5.95364 1.25145 6.04989 1.20645 6.16114L1.20395 6.16614L0.300195 8.29739C0.235195 8.39989 0.200195 8.51864 0.200195 8.63989C0.200195 8.99364 0.486445 9.27989 0.840195 9.27989C1.13145 9.27989 1.38645 9.08114 1.45895 8.79989L2.27395 6.97364L3.73395 6.13864C3.52395 7.11614 3.1302 8.93739 3.1302 8.93739V8.94364C3.10145 9.05114 3.0802 9.16239 3.0802 9.27989C3.0802 9.53489 3.15645 9.77239 3.2852 9.97114L3.28645 9.97489L3.2902 9.97864C3.36395 10.0924 3.45895 10.1911 3.5652 10.2749L5.03645 11.8649L5.6402 14.5736C5.6427 14.6811 5.66645 14.7861 5.7102 14.8849L5.71395 14.8999L5.71645 14.8986C5.8477 15.1799 6.1302 15.3599 6.4402 15.3599C6.88145 15.3599 7.2402 15.0011 7.2402 14.5599C7.2402 14.4336 7.2102 14.3086 7.1527 14.1961L6.51395 11.3124L5.3202 9.28114L6.23395 5.60114V5.59989C6.26395 5.49614 6.2802 5.38864 6.2802 5.27989C6.2802 4.66114 5.77895 4.15989 5.1602 4.15989C5.1577 4.15989 5.1552 4.15989 5.15395 4.15989C5.1527 4.15989 5.1527 4.15989 5.15145 4.15989H4.4277ZM6.91145 5.38489C6.90895 5.43489 6.9077 5.48364 6.9002 5.53114L6.51645 7.09364L7.1152 7.75614L8.9102 8.26989C8.91145 8.26989 8.91145 8.26989 8.91145 8.26989L8.9302 8.27614V8.27489C9.00145 8.30364 9.07895 8.31989 9.1602 8.31989C9.51395 8.31989 9.8002 8.03364 9.8002 7.67989C9.8002 7.39989 9.61895 7.16489 9.3702 7.07739V7.07489L7.77395 6.60614L6.91145 5.38489ZM2.90145 10.5199L2.60145 12.0249L1.07645 13.9911C0.931445 14.1361 0.840195 14.3374 0.840195 14.5599C0.840195 15.0024 1.1977 15.3599 1.6402 15.3599C1.93395 15.3599 2.1877 15.1999 2.32645 14.9649L2.3302 14.9661L3.9202 12.8936L4.20645 11.8211L2.90145 10.5199Z" fill="#1D9BEB"/>
</svg>
