<svg width="16" height="16" viewBox="0 0 16 16" fill="none" xmlns="http://www.w3.org/2000/svg">
<path d="M8.8002 0.639893C8.0052 0.639893 7.3602 1.28489 7.3602 2.07989C7.3602 2.87489 8.0052 3.51989 8.8002 3.51989C9.5952 3.51989 10.2402 2.87489 10.2402 2.07989C10.2402 1.28489 9.5952 0.639893 8.8002 0.639893ZM7.4277 4.15989C7.14645 4.15989 6.8727 4.25239 6.64895 4.42364L4.47395 5.84989C4.4577 5.85989 4.4427 5.86989 4.4277 5.87989L4.42395 5.88364C4.32645 5.95364 4.25145 6.04989 4.20645 6.16114L4.20395 6.16614L3.3002 8.29739C3.2352 8.39989 3.2002 8.51864 3.2002 8.63989C3.2002 8.99364 3.48645 9.27989 3.8402 9.27989C4.13145 9.27989 4.38645 9.08114 4.45895 8.79989L5.27395 6.97364L6.73395 6.13864C6.52395 7.11614 6.1302 8.93739 6.1302 8.93739V8.94364C6.10145 9.05114 6.0802 9.16239 6.0802 9.27989C6.0802 9.53489 6.15645 9.77239 6.2852 9.97114L6.28645 9.97489L6.2902 9.97864C6.36395 10.0924 6.45895 10.1911 6.5652 10.2749L8.03645 11.8649L8.6402 14.5736C8.6427 14.6811 8.66645 14.7861 8.7102 14.8849L8.71395 14.8999L8.71645 14.8986C8.8477 15.1799 9.1302 15.3599 9.4402 15.3599C9.88145 15.3599 10.2402 15.0011 10.2402 14.5599C10.2402 14.4336 10.2102 14.3086 10.1527 14.1961L9.51395 11.3124L8.3202 9.28114L9.23395 5.60114V5.59989C9.26395 5.49614 9.2802 5.38864 9.2802 5.27989C9.2802 4.66114 8.77895 4.15989 8.1602 4.15989C8.1577 4.15989 8.1552 4.15989 8.15395 4.15989C8.1527 4.15989 8.1527 4.15989 8.15145 4.15989H7.4277ZM9.91145 5.38489C9.90895 5.43489 9.9077 5.48364 9.9002 5.53114L9.51645 7.09364L10.1152 7.75614L11.9102 8.26989C11.9114 8.26989 11.9114 8.26989 11.9114 8.26989L11.9302 8.27614V8.27489C12.0014 8.30364 12.0789 8.31989 12.1602 8.31989C12.5139 8.31989 12.8002 8.03364 12.8002 7.67989C12.8002 7.39989 12.6189 7.16489 12.3702 7.07739V7.07489L10.7739 6.60614L9.91145 5.38489ZM5.90145 10.5199L5.60145 12.0249L4.07645 13.9911C3.93145 14.1361 3.8402 14.3374 3.8402 14.5599C3.8402 15.0024 4.1977 15.3599 4.6402 15.3599C4.93395 15.3599 5.1877 15.1999 5.32645 14.9649L5.3302 14.9661L6.9202 12.8936L7.20645 11.8211L5.90145 10.5199Z" fill="#071727"/>
</svg>
