<svg width="24" height="24" viewBox="0 0 24 24" fill="none" xmlns="http://www.w3.org/2000/svg">
<path d="M0.959961 2.40002V2.88002V21.6H6.23996H18.72H23.04V2.40002H22.56C20.2396 2.40002 18.7484 3.59538 18.1537 4.18502C17.3715 3.70881 14.9717 2.40002 12 2.40002C9.02824 2.40002 6.62842 3.70881 5.84621 4.18502C5.25151 3.59538 3.7603 2.40002 1.43996 2.40002H0.959961ZM11.52 3.37409V8.64002H6.23996V5.08784C6.5214 4.90531 8.7023 3.52112 11.52 3.37409ZM12.48 3.37409C15.2976 3.52112 17.4785 4.90531 17.76 5.08784V8.64002H12.48V3.37409ZM1.91996 3.43502C4.0855 3.63165 5.16627 4.85987 5.27996 5.0044V20.64H1.91996V3.43502ZM22.08 3.43502V20.64H18.72V5.0044C18.8337 4.85987 19.9144 3.63165 22.08 3.43502ZM2.39996 5.28002V6.24002H4.79996V5.28002H2.39996ZM19.2 5.28002V6.24002H21.6V5.28002H19.2ZM2.39996 6.72002V7.68002H4.79996V6.72002H2.39996ZM19.2 6.72002V7.68002H21.6V6.72002H19.2ZM2.39996 8.16002V9.12002H4.79996V8.16002H2.39996ZM19.2 8.16002V9.12002H21.6V8.16002H19.2ZM2.39996 9.60002V10.56H4.79996V9.60002H2.39996ZM6.23996 9.60002H11.52V20.64H6.23996V9.60002ZM12.48 9.60002H17.76V20.64H12.48V9.60002ZM19.2 9.60002V10.56H21.6V9.60002H19.2ZM2.39996 13.92V14.88H4.79996V13.92H2.39996ZM19.2 13.92V14.88H21.6V13.92H19.2ZM2.39996 15.36V16.32H4.79996V15.36H2.39996ZM19.2 15.36V16.32H21.6V15.36H19.2ZM2.39996 16.8V17.76H4.79996V16.8H2.39996ZM19.2 16.8V17.76H21.6V16.8H19.2ZM2.39996 18.24V19.2H4.79996V18.24H2.39996ZM19.2 18.24V19.2H21.6V18.24H19.2Z" fill="#1D9BEB"/>
</svg>
